<?xml version="1.0" encoding="utf-8"?>
<!-- Generator: Adobe Illustrator 18.1.1, SVG Export Plug-In . SVG Version: 6.00 Build 0)  -->
<svg version="1.1" id="Vrstva_1" xmlns="http://www.w3.org/2000/svg" xmlns:xlink="http://www.w3.org/1999/xlink" x="0px" y="0px"
	 viewBox="0 0 100 100" enable-background="new 0 0 100 100" xml:space="preserve" fill= "#1ba38c">
<g>
	<g>
		<path d="M21.3,60.1c-5.6,0-10.1-4.5-10.1-10.1s4.5-10.1,10.1-10.1S31.4,44.4,31.4,50S26.9,60.1,21.3,60.1z M21.3,42.9
			c-3.9,0-7.1,3.2-7.1,7.1s3.2,7.1,7.1,7.1s7.1-3.2,7.1-7.1S25.2,42.9,21.3,42.9z"/>
	</g>
	<g>
		<path d="M50,60.1c-5.6,0-10.1-4.5-10.1-10.1S44.4,39.9,50,39.9S60.1,44.4,60.1,50S55.6,60.1,50,60.1z M50,42.9
			c-3.9,0-7.1,3.2-7.1,7.1s3.2,7.1,7.1,7.1s7.1-3.2,7.1-7.1S53.9,42.9,50,42.9z"/>
	</g>
	<g>
		<path d="M78.7,60.1c-5.6,0-10.1-4.5-10.1-10.1s4.5-10.1,10.1-10.1S88.8,44.4,88.8,50S84.2,60.1,78.7,60.1z M78.7,42.9
			c-3.9,0-7.1,3.2-7.1,7.1s3.2,7.1,7.1,7.1s7.1-3.2,7.1-7.1S82.6,42.9,78.7,42.9z"/>
	</g>
</g>
<script  type="text/javascript">
    <![CDATA[
         var c=window.location.search.split('color=')[1]; c=parseInt(c,16); if(!isNaN(c)){c=c.toString(16);var p=document.getElementsByTagName('path');for(var i=0,l=p.length;i<l;i++){var s=p[i].style;s.fill='#'+c;} var p2=document.getElementsByTagName('polygon');for(var i=0,l=p2.length;i<l;i++){var s=p2[i].style;s.fill='#'+c;} var p3=document.getElementsByTagName('circle');for(var i=0,l=p3.length;i<l;i++){var s=p3[i].style;s.fill='#'+c;} }
        ]]>
</script>
</svg>
