<svg version="1.1" xmlns="http://www.w3.org/2000/svg" xmlns:xlink="http://www.w3.org/1999/xlink" x="0px" y="0px"
	 viewBox="0 0 100 100" style="enable-background:new 0 0 100 100;" xml:space="preserve" fill= "#1ba38c">
<g id="Vrstva_22">
	<g>
		<g>
			<g>
				<path d="M36.998,86c-0.24,0-0.483-0.058-0.709-0.18c-0.729-0.393-1.002-1.302-0.61-2.031l3.5-6.5
					c0.393-0.729,1.302-1.003,2.032-0.609c0.729,0.393,1.002,1.302,0.61,2.031l-3.5,6.5C38.05,85.714,37.533,86,36.998,86z"/>
			</g>
			<g>
				<path d="M63.501,86c-0.534,0-1.051-0.285-1.322-0.789l-3.5-6.5c-0.393-0.729-0.12-1.639,0.61-2.031
					c0.729-0.395,1.639-0.121,2.032,0.609l3.5,6.5c0.393,0.729,0.12,1.639-0.61,2.031C63.985,85.942,63.741,86,63.501,86z"/>
			</g>
			<g>
				<path d="M50.5,64.5c-0.39,0-0.78-0.16-1.06-0.44C49.16,63.78,49,63.39,49,63c0-0.4,0.16-0.78,0.44-1.061
					c0.55-0.56,1.56-0.56,2.12,0C51.84,62.22,52,62.6,52,63c0,0.39-0.16,0.78-0.44,1.06C51.28,64.34,50.9,64.5,50.5,64.5z"/>
			</g>
			<g>
				<path d="M63,86H37c-0.829,0-1.5-0.672-1.5-1.5S36.171,83,37,83h26c0.829,0,1.5,0.672,1.5,1.5S63.829,86,63,86z"/>
			</g>
			<g>
				<path d="M85.5,71h-71C11.467,71,9,68.532,9,65.5v-46c0-3.033,2.467-5.5,5.5-5.5h71c3.033,0,5.5,2.467,5.5,5.5v46
					C91,68.532,88.533,71,85.5,71z M14.5,17c-1.378,0-2.5,1.122-2.5,2.5v46c0,1.379,1.122,2.5,2.5,2.5h71c1.378,0,2.5-1.121,2.5-2.5
					v-46c0-1.378-1.122-2.5-2.5-2.5H14.5z"/>
			</g>
			<g>
				<path d="M88,58H13c-0.829,0-1.5-0.672-1.5-1.5S12.171,55,13,55h75c0.829,0,1.5,0.672,1.5,1.5S88.829,58,88,58z"/>
			</g>
		</g>
		<g>
			<path d="M22.75,48.25c-0.384,0-0.768-0.146-1.061-0.439c-0.586-0.585-0.586-1.536,0-2.121l12-12c0.586-0.586,1.535-0.586,2.121,0
				l6.69,6.689l9.314-9.314c0.586-0.586,1.535-0.586,2.121,0l8.19,8.189l13.439-13.439c0.586-0.586,1.535-0.586,2.121,0
				c0.586,0.585,0.586,1.536,0,2.121l-14.5,14.5c-0.586,0.586-1.535,0.586-2.121,0l-8.189-8.189l-9.315,9.314
				c-0.586,0.586-1.535,0.586-2.121,0l-6.689-6.689L23.81,47.811C23.518,48.104,23.134,48.25,22.75,48.25z"/>
		</g>
		<g>
			<path d="M77.5,35.5c-0.829,0-1.5-0.671-1.5-1.5v-7c0-0.829,0.671-1.5,1.5-1.5c0.829,0,1.5,0.671,1.5,1.5v7
				C79,34.829,78.329,35.5,77.5,35.5z"/>
		</g>
		<g>
			<path d="M77,28h-7c-0.829,0-1.5-0.671-1.5-1.5S69.171,25,70,25h7c0.829,0,1.5,0.671,1.5,1.5S77.829,28,77,28z"/>
		</g>
	</g>
</g>
<script  type="text/javascript">
    <![CDATA[
         var c=window.location.search.split('color=')[1]; c=parseInt(c,16); if(!isNaN(c)){c=c.toString(16);var p=document.getElementsByTagName('path');for(var i=0,l=p.length;i<l;i++){var s=p[i].style;s.fill='#'+c;} var p2=document.getElementsByTagName('polygon');for(var i=0,l=p2.length;i<l;i++){var s=p2[i].style;s.fill='#'+c;} var p3=document.getElementsByTagName('circle');for(var i=0,l=p3.length;i<l;i++){var s=p3[i].style;s.fill='#'+c;} }
        ]]>
</script>
</svg>
